<svg width="20" height="20" viewBox="0 0 20 20" fill="none" xmlns="http://www.w3.org/2000/svg">
<path d="M10 7.76663C10.9917 7.76663 11.8 6.95829 11.8 5.96663C11.8 4.97496 10.9917 4.16663 10 4.16663C9.00833 4.16663 8.2 4.97496 8.2 5.96663C8.2 6.95829 9.00833 7.76663 10 7.76663Z" stroke="#ADB0ED" stroke-width="1.5" stroke-linecap="round" stroke-linejoin="round"/>
<path d="M5.65833 15.8333C6.65 15.8333 7.45833 15.0249 7.45833 14.0333C7.45833 13.0416 6.65 12.2333 5.65833 12.2333C4.66666 12.2333 3.85833 13.0416 3.85833 14.0333C3.85833 15.0249 4.65833 15.8333 5.65833 15.8333Z" stroke="#ADB0ED" stroke-width="1.5" stroke-linecap="round" stroke-linejoin="round"/>
<path d="M14.3417 15.8333C15.3333 15.8333 16.1417 15.0249 16.1417 14.0333C16.1417 13.0416 15.3333 12.2333 14.3417 12.2333C13.35 12.2333 12.5417 13.0416 12.5417 14.0333C12.5417 15.0249 13.35 15.8333 14.3417 15.8333Z" stroke="#ADB0ED" stroke-width="1.5" stroke-linecap="round" stroke-linejoin="round"/>
</svg>
