<svg width="20" height="20" viewBox="0 0 20 20" fill="none" xmlns="http://www.w3.org/2000/svg">
<path d="M10.1 10.65C10.0417 10.6417 9.96667 10.6417 9.9 10.65C8.43334 10.6 7.26667 9.39998 7.26667 7.92498C7.26667 6.41665 8.48334 5.19165 10 5.19165C11.5083 5.19165 12.7333 6.41665 12.7333 7.92498C12.725 9.39998 11.5667 10.6 10.1 10.65Z" stroke="#ADB0ED" stroke-width="1.5" stroke-linecap="round" stroke-linejoin="round"/>
<path d="M15.6167 16.15C14.1333 17.5084 12.1667 18.3334 10 18.3334C7.83333 18.3334 5.86666 17.5084 4.38333 16.15C4.46666 15.3667 4.96666 14.6 5.85833 14C8.14166 12.4834 11.875 12.4834 14.1417 14C15.0333 14.6 15.5333 15.3667 15.6167 16.15Z" stroke="#ADB0ED" stroke-width="1.5" stroke-linecap="round" stroke-linejoin="round"/>
<path d="M10 18.3333C14.6024 18.3333 18.3333 14.6023 18.3333 9.99996C18.3333 5.39759 14.6024 1.66663 10 1.66663C5.39762 1.66663 1.66666 5.39759 1.66666 9.99996C1.66666 14.6023 5.39762 18.3333 10 18.3333Z" stroke="#ADB0ED" stroke-width="1.5" stroke-linecap="round" stroke-linejoin="round"/>
</svg>
