<svg width="16" height="17" viewBox="0 0 16 17" fill="none" xmlns="http://www.w3.org/2000/svg">
<path d="M8.13336 8.36669L7.19334 9.30669C6.67334 9.82669 6.67334 10.6734 7.19334 11.1934C7.71334 11.7134 8.56001 11.7134 9.08001 11.1934L10.56 9.71337C11.6 8.67337 11.6 6.9867 10.56 5.94003C9.52003 4.90003 7.83335 4.90003 6.78668 5.94003L5.17336 7.55336C4.28002 8.44669 4.28002 9.89336 5.17336 10.7867" stroke="#9E57E5" stroke-width="1.5" stroke-linecap="round" stroke-linejoin="round"/>
<path d="M7.99998 15.1667C11.6819 15.1667 14.6666 12.1819 14.6666 8.50004C14.6666 4.81814 11.6819 1.83337 7.99998 1.83337C4.31808 1.83337 1.33331 4.81814 1.33331 8.50004C1.33331 12.1819 4.31808 15.1667 7.99998 15.1667Z" stroke="#9E57E5" stroke-width="1.5" stroke-linecap="round" stroke-linejoin="round"/>
</svg>
