<svg width="20" height="20" viewBox="0 0 20 20" fill="none" xmlns="http://www.w3.org/2000/svg">
<g id="icons/linear/more-2">
<g id="more-2">
<path id="Vector" d="M9.99995 7.76675C10.9916 7.76675 11.8 6.95841 11.8 5.96675C11.8 4.97508 10.9916 4.16675 9.99995 4.16675C9.00828 4.16675 8.19995 4.97508 8.19995 5.96675C8.19995 6.95841 9.00828 7.76675 9.99995 7.76675Z" stroke="#ADB0ED" stroke-width="1.5" stroke-linecap="round" stroke-linejoin="round"/>
<path id="Vector_2" d="M5.65828 15.8334C6.64994 15.8334 7.45828 15.0251 7.45828 14.0334C7.45828 13.0417 6.64994 12.2334 5.65828 12.2334C4.66661 12.2334 3.85828 13.0417 3.85828 14.0334C3.85828 15.0251 4.65828 15.8334 5.65828 15.8334Z" stroke="#ADB0ED" stroke-width="1.5" stroke-linecap="round" stroke-linejoin="round"/>
<path id="Vector_3" d="M14.3416 15.8334C15.3333 15.8334 16.1416 15.0251 16.1416 14.0334C16.1416 13.0417 15.3333 12.2334 14.3416 12.2334C13.35 12.2334 12.5416 13.0417 12.5416 14.0334C12.5416 15.0251 13.35 15.8334 14.3416 15.8334Z" stroke="#ADB0ED" stroke-width="1.5" stroke-linecap="round" stroke-linejoin="round"/>
</g>
</g>
</svg>
