<svg width="16" height="16" viewBox="0 0 16 16" fill="none" xmlns="http://www.w3.org/2000/svg">
<path d="M8.79334 4H4.52668C4.35334 4 4.18668 4.00667 4.02668 4.02667C2.23334 4.18 1.33334 5.24 1.33334 7.19333V9.86C1.33334 12.5267 2.40001 13.0533 4.52668 13.0533H4.79334C4.94001 13.0533 5.13334 13.1533 5.22001 13.2667L6.02001 14.3333C6.37334 14.8067 6.94668 14.8067 7.30001 14.3333L8.10001 13.2667C8.20001 13.1333 8.36001 13.0533 8.52668 13.0533H8.79334C10.7467 13.0533 11.8067 12.16 11.96 10.36C11.98 10.2 11.9867 10.0333 11.9867 9.86V7.19333C11.9867 5.06667 10.92 4 8.79334 4ZM4.33334 9.33333C3.96001 9.33333 3.66668 9.03333 3.66668 8.66667C3.66668 8.3 3.96668 8 4.33334 8C4.70001 8 5.00001 8.3 5.00001 8.66667C5.00001 9.03333 4.70001 9.33333 4.33334 9.33333ZM6.66001 9.33333C6.28668 9.33333 5.99334 9.03333 5.99334 8.66667C5.99334 8.3 6.29334 8 6.66001 8C7.02668 8 7.32668 8.3 7.32668 8.66667C7.32668 9.03333 7.03334 9.33333 6.66001 9.33333ZM8.99334 9.33333C8.62001 9.33333 8.32668 9.03333 8.32668 8.66667C8.32668 8.3 8.62668 8 8.99334 8C9.36001 8 9.66001 8.3 9.66001 8.66667C9.66001 9.03333 9.36001 9.33333 8.99334 9.33333Z" fill="#C6C8CB"/>
<path d="M14.6533 4.52671V7.19337C14.6533 8.52671 14.24 9.43337 13.4133 9.93337C13.2133 10.0534 12.98 9.89337 12.98 9.66004L12.9867 7.19337C12.9867 4.52671 11.46 3.00004 8.79332 3.00004L4.73332 3.00671C4.49999 3.00671 4.33999 2.77337 4.45999 2.57337C4.95999 1.74671 5.86666 1.33337 7.19332 1.33337H11.46C13.5867 1.33337 14.6533 2.40004 14.6533 4.52671Z" fill="#C6C8CB"/>
</svg>
