<svg width="16" height="16" viewBox="0 0 16 16" fill="none" xmlns="http://www.w3.org/2000/svg">
<path opacity="0.93" d="M8.00001 1.33337C4.32001 1.33337 1.33334 4.32004 1.33334 8.00004C1.33334 11.68 4.32001 14.6667 8.00001 14.6667C11.68 14.6667 14.6667 11.68 14.6667 8.00004C14.6667 4.32004 11.68 1.33337 8.00001 1.33337ZM10.9133 9.56671L9.43334 11.0467C9.07334 11.4067 8.60668 11.58 8.14001 11.58C7.67334 11.58 7.20001 11.4 6.84668 11.0467C6.50001 10.7 6.30668 10.24 6.30668 9.75337C6.30668 9.26671 6.50001 8.80004 6.84668 8.46004L7.78668 7.52004C7.98001 7.32671 8.30001 7.32671 8.49334 7.52004C8.68668 7.71337 8.68668 8.03337 8.49334 8.22671L7.55334 9.16671C7.39334 9.32671 7.30668 9.53337 7.30668 9.75337C7.30668 9.97337 7.39334 10.1867 7.55334 10.34C7.88001 10.6667 8.40668 10.6667 8.73334 10.34L10.2133 8.86004C11.06 8.01337 11.06 6.64004 10.2133 5.79337C9.36668 4.94671 7.99334 4.94671 7.14668 5.79337L5.53334 7.40671C5.19334 7.74671 5.00668 8.19337 5.00668 8.66671C5.00668 9.14004 5.19334 9.59337 5.53334 9.92671C5.72668 10.12 5.72668 10.44 5.53334 10.6334C5.34001 10.8267 5.02001 10.8267 4.82668 10.6334C4.29334 10.12 4.00001 9.42004 4.00001 8.67337C4.00001 7.92671 4.28668 7.22671 4.81334 6.70004L6.42668 5.08671C7.66001 3.85337 9.67334 3.85337 10.9067 5.08671C12.1467 6.32004 12.1467 8.33337 10.9133 9.56671Z" fill="#C6C8CB"/>
</svg>
