<svg width="20" height="20" viewBox="0 0 20 20" fill="none" xmlns="http://www.w3.org/2000/svg">
<path d="M18.3333 9.08335V3.41669C18.3333 2.16669 17.8 1.66669 16.475 1.66669H13.1083C11.7833 1.66669 11.25 2.16669 11.25 3.41669V9.08335C11.25 10.3334 11.7833 10.8334 13.1083 10.8334H16.475C17.8 10.8334 18.3333 10.3334 18.3333 9.08335Z" stroke="currentColor" stroke-width="1.5" stroke-linecap="round" stroke-linejoin="round"/>
<path d="M18.3333 16.5833V15.0833C18.3333 13.8333 17.8 13.3333 16.475 13.3333H13.1083C11.7833 13.3333 11.25 13.8333 11.25 15.0833V16.5833C11.25 17.8333 11.7833 18.3333 13.1083 18.3333H16.475C17.8 18.3333 18.3333 17.8333 18.3333 16.5833Z" stroke="currentColor" stroke-width="1.5" stroke-linecap="round" stroke-linejoin="round"/>
<path d="M8.74996 10.9167V16.5834C8.74996 17.8334 8.21663 18.3334 6.89163 18.3334H3.52496C2.19996 18.3334 1.66663 17.8334 1.66663 16.5834V10.9167C1.66663 9.66669 2.19996 9.16669 3.52496 9.16669H6.89163C8.21663 9.16669 8.74996 9.66669 8.74996 10.9167Z" stroke="currentColor" stroke-width="1.5" stroke-linecap="round" stroke-linejoin="round"/>
<path d="M8.74996 3.41669V4.91669C8.74996 6.16669 8.21663 6.66669 6.89163 6.66669H3.52496C2.19996 6.66669 1.66663 6.16669 1.66663 4.91669V3.41669C1.66663 2.16669 2.19996 1.66669 3.52496 1.66669H6.89163C8.21663 1.66669 8.74996 2.16669 8.74996 3.41669Z" stroke="currentColor" stroke-width="1.5" stroke-linecap="round" stroke-linejoin="round"/>
</svg>
