<svg width="16" height="16" viewBox="0 0 16 16" fill="none" xmlns="http://www.w3.org/2000/svg">
<path d="M8.00004 14.6667C12.3334 14.6667 14.6667 12.3334 14.6667 8.00004V6.00004C14.6667 2.66671 13.3334 1.33337 10 1.33337H6.00004C2.66671 1.33337 1.33337 2.66671 1.33337 6.00004V8.00004C1.33337 12.3334 3.66671 14.6667 8.00004 14.6667Z" stroke="#727880" stroke-width="1.5" stroke-linecap="round" stroke-linejoin="round"/>
<path d="M4.66663 5.5C5.33329 6.16667 6.41996 6.16667 7.09329 5.5" stroke="#727880" stroke-width="1.5" stroke-miterlimit="10" stroke-linecap="round" stroke-linejoin="round"/>
<path d="M8.90668 5.5C9.57334 6.16667 10.66 6.16667 11.3333 5.5" stroke="#727880" stroke-width="1.5" stroke-miterlimit="10" stroke-linecap="round" stroke-linejoin="round"/>
<path d="M5.6 8.66663H10.4C10.7333 8.66663 11 8.93329 11 9.26663C11 10.9266 9.66 12.2666 8 12.2666C6.34 12.2666 5 10.9266 5 9.26663C5 8.93329 5.26667 8.66663 5.6 8.66663Z" stroke="#727880" stroke-width="1.5" stroke-miterlimit="10" stroke-linecap="round" stroke-linejoin="round"/>
</svg>
