<svg width="16" height="16" viewBox="0 0 16 16" fill="none" xmlns="http://www.w3.org/2000/svg">
<g clip-path="url(#clip0_435_13512)">
<path d="M7.99996 15.3333C6.54957 15.3333 5.13174 14.9032 3.92578 14.0974C2.71982 13.2916 1.77989 12.1463 1.22485 10.8063C0.669803 9.46632 0.524579 7.99183 0.807537 6.5693C1.0905 5.14677 1.78893 3.8401 2.81451 2.81451C3.8401 1.78893 5.14677 1.0905 6.5693 0.807537C7.99183 0.524579 9.46632 0.669803 10.8063 1.22485C12.1463 1.77989 13.2916 2.71982 14.0974 3.92578C14.9032 5.13174 15.3333 6.54957 15.3333 7.99996C15.3311 9.94421 14.5578 11.8082 13.183 13.183C11.8082 14.5578 9.94421 15.3311 7.99996 15.3333V15.3333Z" fill="url(#paint0_linear_435_13512)"/>
<path d="M10.9999 9.33325C11.5522 9.33325 11.9999 8.88554 11.9999 8.33325C11.9999 7.78097 11.5522 7.33325 10.9999 7.33325C10.4477 7.33325 9.99994 7.78097 9.99994 8.33325C9.99994 8.88554 10.4477 9.33325 10.9999 9.33325Z" fill="#1B1D1F"/>
<path d="M5 9.33325C5.55228 9.33325 6 8.88554 6 8.33325C6 7.78097 5.55228 7.33325 5 7.33325C4.44772 7.33325 4 7.78097 4 8.33325C4 8.88554 4.44772 9.33325 5 9.33325Z" fill="#1B1D1F"/>
<path d="M5.76398 12.3333C5.69962 12.3333 5.63664 12.3147 5.58264 12.2797C5.52864 12.2446 5.48593 12.1947 5.45967 12.136C5.43341 12.0772 5.42473 12.0121 5.43466 11.9485C5.44459 11.885 5.47272 11.8256 5.51565 11.7777C5.8283 11.4281 6.21119 11.1485 6.63928 10.9571C7.06737 10.7657 7.53104 10.6667 7.99998 10.6667C8.46892 10.6667 8.93259 10.7657 9.36068 10.9571C9.78877 11.1485 10.1717 11.4281 10.4843 11.7777C10.514 11.8102 10.5369 11.8483 10.5518 11.8897C10.5667 11.9312 10.5732 11.9752 10.5709 12.0191C10.5687 12.0631 10.5578 12.1062 10.5388 12.1459C10.5199 12.1857 10.4932 12.2213 10.4604 12.2506C10.4276 12.28 10.3893 12.3026 10.3477 12.3171C10.3061 12.3316 10.2621 12.3377 10.2181 12.335C10.1742 12.3324 10.1312 12.3211 10.0916 12.3017C10.052 12.2824 10.0167 12.2554 9.98764 12.2223C9.73752 11.9426 9.43119 11.7189 9.08868 11.5657C8.74616 11.4125 8.37518 11.3334 7.99998 11.3334C7.62477 11.3334 7.25379 11.4125 6.91128 11.5657C6.56877 11.7189 6.26244 11.9426 6.01231 12.2223C5.98105 12.2572 5.94277 12.2852 5.89998 12.3043C5.85719 12.3234 5.81085 12.3333 5.76398 12.3333Z" fill="#1B1D1F"/>
<path d="M9.99994 6.99999C9.92705 7.00004 9.85616 6.9762 9.79811 6.93211C9.74006 6.88803 9.69806 6.82613 9.67855 6.7559C9.65904 6.68567 9.66308 6.61098 9.69006 6.54327C9.71704 6.47556 9.76548 6.41855 9.82794 6.38099L11.4946 5.38099C11.5703 5.33735 11.6601 5.32517 11.7447 5.34706C11.8292 5.36896 11.9018 5.42318 11.9468 5.49807C11.9918 5.57295 12.0056 5.6625 11.9853 5.74746C11.9649 5.83242 11.912 5.90598 11.8379 5.95233L10.1713 6.95233C10.1196 6.98353 10.0603 7.00001 9.99994 6.99999V6.99999Z" fill="#1B1D1F"/>
<path d="M6 6.99999C5.93961 7.00001 5.88037 6.98353 5.82867 6.95233L4.162 5.95233C4.08794 5.90598 4.03504 5.83242 4.01468 5.74746C3.99431 5.6625 4.00811 5.57295 4.05311 5.49807C4.09811 5.42318 4.17071 5.36896 4.25529 5.34706C4.33986 5.32517 4.42965 5.33735 4.50534 5.38099L6.172 6.38099C6.23447 6.41855 6.2829 6.47556 6.30988 6.54327C6.33687 6.61098 6.34091 6.68567 6.3214 6.7559C6.30188 6.82613 6.25988 6.88803 6.20184 6.93211C6.14379 6.9762 6.07289 7.00004 6 6.99999Z" fill="#1B1D1F"/>
</g>
<defs>
<linearGradient id="paint0_linear_435_13512" x1="7.99996" y1="0.666626" x2="7.99996" y2="15.3333" gradientUnits="userSpaceOnUse">
<stop stop-color="#FF5747"/>
<stop offset="1" stop-color="#FFBC7D"/>
</linearGradient>
<clipPath id="clip0_435_13512">
<rect width="16" height="16" fill="white"/>
</clipPath>
</defs>
</svg>
