<svg width="20" height="20" viewBox="0 0 20 20" fill="none" xmlns="http://www.w3.org/2000/svg">
<path d="M10.55 2.09841L10.525 2.15674L8.10833 7.76507H5.73333C5.16666 7.76507 4.625 7.88174 4.13333 8.09007L5.59166 4.60674L5.625 4.52341L5.68333 4.39007C5.7 4.34007 5.71666 4.29007 5.74166 4.24841C6.83333 1.72341 8.06666 1.14841 10.55 2.09841Z" stroke="#ADB0ED" stroke-width="1.5" stroke-linecap="round" stroke-linejoin="round"/>
<path d="M15.0417 7.93172C14.6667 7.81506 14.2667 7.76506 13.8667 7.76506H8.10834L9.31667 4.96089L10.525 2.15672L10.55 2.09839C10.675 2.14006 10.7917 2.19839 10.9167 2.24839L12.7583 3.02339C13.7833 3.44839 14.5 3.89006 14.9333 4.42339C15.0167 4.52339 15.0833 4.61506 15.1417 4.72339C15.2167 4.84006 15.275 4.95672 15.3083 5.08172C15.3417 5.15672 15.3667 5.23172 15.3833 5.29839C15.6083 5.99839 15.475 6.85672 15.0417 7.93172Z" stroke="#ADB0ED" stroke-width="1.5" stroke-linecap="round" stroke-linejoin="round"/>
<path d="M17.9348 11.8319V13.4569C17.9348 13.6236 17.9264 13.7903 17.9181 13.9569C17.7598 16.8653 16.1348 18.3319 13.0514 18.3319H6.55143C6.35143 18.3319 6.15143 18.3153 5.95976 18.2903C3.30976 18.1153 1.8931 16.6986 1.7181 14.0486C1.6931 13.8569 1.67643 13.6569 1.67643 13.4569V11.8319C1.67643 10.1569 2.6931 8.71526 4.1431 8.09026C4.6431 7.88193 5.17643 7.76526 5.7431 7.76526H13.8764C14.2848 7.76526 14.6848 7.82359 15.0514 7.93193C16.7098 8.44026 17.9348 9.99026 17.9348 11.8319Z" stroke="#ADB0ED" stroke-width="1.5" stroke-linecap="round" stroke-linejoin="round"/>
<path d="M5.59166 4.60681L4.13333 8.09014C2.68333 8.71514 1.66666 10.1568 1.66666 11.8318V9.39015C1.66666 7.02348 3.35 5.04848 5.59166 4.60681Z" stroke="#ADB0ED" stroke-width="1.5" stroke-linecap="round" stroke-linejoin="round"/>
<path d="M17.9322 9.38975V11.8314C17.9322 9.99809 16.7155 8.43975 15.0488 7.93975C15.4822 6.85642 15.6072 6.00642 15.3988 5.29809C15.3822 5.22309 15.3572 5.14809 15.3238 5.08142C16.8738 5.88142 17.9322 7.52309 17.9322 9.38975Z" stroke="#ADB0ED" stroke-width="1.5" stroke-linecap="round" stroke-linejoin="round"/>
</svg>
