<svg width="16" height="17" viewBox="0 0 16 17" fill="none" xmlns="http://www.w3.org/2000/svg">
<path d="M7.33203 4.56013C8.25748 4.55956 9.15326 4.8866 9.86065 5.48329L11.8421 3.59637C11.0815 2.89501 10.1678 2.38059 9.17372 2.09394C8.17959 1.80729 7.13234 1.75629 6.11506 1.94499C5.09779 2.1337 4.1385 2.55691 3.31332 3.18104C2.48815 3.80518 1.8198 4.61305 1.36133 5.54055L3.59515 7.26235C3.85567 6.47677 4.35676 5.79306 5.02743 5.30808C5.69811 4.8231 6.50438 4.56143 7.33203 4.56013V4.56013Z" fill="#D94F3D"/>
<path d="M3.39339 8.49886C3.39395 8.07856 3.46208 7.66109 3.59517 7.26242L1.36134 5.54062C0.904414 6.45981 0.666626 7.47236 0.666626 8.49886C0.666626 9.52535 0.904414 10.5379 1.36134 11.4571L3.59517 9.73529C3.46208 9.33662 3.39395 8.91915 3.39339 8.49886V8.49886Z" fill="#F2C042"/>
<path d="M13.7249 7.28687H7.36243V10.0136H10.9678C10.7533 10.7846 10.2619 11.4494 9.58777 11.8806L11.8043 13.5893C13.2207 12.318 14.053 10.2509 13.7249 7.28687Z" fill="#5085ED"/>
<path d="M9.58676 11.8806C8.90175 12.2726 8.12082 12.4655 7.33203 12.4374C6.50438 12.4361 5.69811 12.1745 5.02743 11.6895C4.35676 11.2045 3.85567 10.5208 3.59515 9.73521L1.36133 11.457C1.91309 12.5693 2.76423 13.5055 3.81904 14.1604C4.87384 14.8153 6.09045 15.163 7.33203 15.1642C8.96578 15.2086 10.5583 14.6475 11.8033 13.5887L9.58676 11.8806Z" fill="#57A75C"/>
</svg>
