<svg width="20" height="20" viewBox="0 0 20 20" fill="none" xmlns="http://www.w3.org/2000/svg">
<path d="M15 15.7167H14.3667C13.7 15.7167 13.0667 15.975 12.6 16.4417L11.175 17.8501C10.525 18.4917 9.46667 18.4917 8.81667 17.8501L7.39166 16.4417C6.925 15.975 6.28333 15.7167 5.625 15.7167H5C3.61667 15.7167 2.5 14.6084 2.5 13.2417V4.15002C2.5 2.78336 3.61667 1.67505 5 1.67505H15C16.3833 1.67505 17.5 2.78336 17.5 4.15002V13.2417C17.5 14.6001 16.3833 15.7167 15 15.7167Z" stroke="#ADB0ED" stroke-width="1.5" stroke-miterlimit="10" stroke-linecap="round" stroke-linejoin="round"/>
<path d="M5.83334 7.63336C5.83334 6.85836 6.46667 6.22498 7.24167 6.22498C8.01667 6.22498 8.65001 6.85836 8.65001 7.63336C8.65001 9.20003 6.425 9.36669 5.93333 10.8584C5.83333 11.1667 6.09167 11.475 6.41667 11.475H8.65001" stroke="#ADB0ED" stroke-width="1.5" stroke-linecap="round" stroke-linejoin="round"/>
<path d="M13.3667 11.4667V6.70838C13.3667 6.49171 13.225 6.3 13.0167 6.24166C12.8083 6.18333 12.5833 6.26666 12.4667 6.45C11.8667 7.41666 11.2167 8.51667 10.65 9.48334C10.5583 9.64167 10.5583 9.85001 10.65 10.0083C10.7417 10.1667 10.9167 10.2666 11.1083 10.2666H14.1667" stroke="#ADB0ED" stroke-width="1.5" stroke-linecap="round" stroke-linejoin="round"/>
</svg>
