<svg width="16" height="16" viewBox="0 0 16 16" fill="none" xmlns="http://www.w3.org/2000/svg">
<path d="M9.68666 6.31333L6.31333 9.68667C5.87999 9.25333 5.61333 8.66 5.61333 8C5.61333 6.68 6.67999 5.61333 7.99999 5.61333C8.65999 5.61333 9.25333 5.88 9.68666 6.31333Z" stroke="#9DA2A7" stroke-width="1.5" stroke-linecap="round" stroke-linejoin="round"/>
<path d="M11.88 3.84666C10.7133 2.96666 9.38 2.48666 8 2.48666C5.64667 2.48666 3.45334 3.87333 1.92667 6.27333C1.32667 7.21333 1.32667 8.79333 1.92667 9.73333C2.45334 10.56 3.06667 11.2733 3.73334 11.8467" stroke="#9DA2A7" stroke-width="1.5" stroke-linecap="round" stroke-linejoin="round"/>
<path d="M5.61333 13.02C6.37333 13.34 7.17999 13.5133 7.99999 13.5133C10.3533 13.5133 12.5467 12.1267 14.0733 9.72667C14.6733 8.78667 14.6733 7.20667 14.0733 6.26667C13.8533 5.92 13.6133 5.59333 13.3667 5.28667" stroke="#9DA2A7" stroke-width="1.5" stroke-linecap="round" stroke-linejoin="round"/>
<path d="M10.34 8.46667C10.1667 9.40667 9.40001 10.1733 8.46001 10.3467" stroke="#9DA2A7" stroke-width="1.5" stroke-linecap="round" stroke-linejoin="round"/>
<path d="M6.31333 9.68667L1.33333 14.6667" stroke="#9DA2A7" stroke-width="1.5" stroke-linecap="round" stroke-linejoin="round"/>
<path d="M14.6667 1.33334L9.68666 6.31334" stroke="#9DA2A7" stroke-width="1.5" stroke-linecap="round" stroke-linejoin="round"/>
</svg>
