<svg width="32" height="33" viewBox="0 0 32 33" fill="none" xmlns="http://www.w3.org/2000/svg">
<path d="M25.3334 12.7534H21.48C18.32 12.7534 15.7467 10.18 15.7467 7.02004V3.16671C15.7467 2.43337 15.1467 1.83337 14.4134 1.83337H8.76004C4.65337 1.83337 1.33337 4.50004 1.33337 9.26004V21.0734C1.33337 25.8334 4.65337 28.5 8.76004 28.5H19.24C23.3467 28.5 26.6667 25.8334 26.6667 21.0734V14.0867C26.6667 13.3534 26.0667 12.7534 25.3334 12.7534Z" fill="url(#paint0_linear_282_9191)"/>
<path d="M19.0663 2.11332C18.5197 1.56666 17.573 1.93999 17.573 2.69999V7.35332C17.573 9.29999 19.2263 10.9133 21.2397 10.9133C22.5063 10.9267 24.2663 10.9267 25.773 10.9267C26.533 10.9267 26.933 10.0333 26.3997 9.49999C24.4797 7.56666 21.0397 4.08666 19.0663 2.11332Z" fill="url(#paint1_linear_282_9191)"/>
<path d="M12.0545 8.5H5.73304C5.49253 8.5 5.30814 8.70844 5.3362 8.94495L6.05773 15.4468C6.07376 15.6071 6.19002 15.7434 6.34635 15.7875L8.78352 16.485C8.85567 16.505 8.93185 16.505 9.004 16.485L11.4412 15.7875C11.5975 15.7434 11.7097 15.6071 11.7298 15.4468L12.4513 8.94495C12.4794 8.70844 12.295 8.5 12.0545 8.5ZM10.5994 10.7047H7.52887L7.66114 11.9072H10.399C10.4831 11.9072 10.5633 11.9433 10.6234 12.0075C10.6796 12.0716 10.7076 12.1558 10.6996 12.2399L10.4992 14.2442C10.4871 14.3685 10.403 14.4687 10.2827 14.5048L8.87974 14.9056C8.85168 14.9136 8.82361 14.9176 8.79555 14.9176C8.76749 14.9176 8.73943 14.9136 8.71137 14.9056L7.30838 14.5048C7.18011 14.4687 7.09193 14.3484 7.09193 14.2161V13.4144C7.09193 13.2501 7.22822 13.1138 7.39257 13.1138C7.55692 13.1138 7.69321 13.2501 7.69321 13.4144V13.9877L8.79555 14.3043L9.91793 13.9837L10.0662 12.5125H7.39257C7.24025 12.5125 7.11198 12.3963 7.09193 12.244L6.89151 10.4401C6.88349 10.3559 6.90754 10.2718 6.96767 10.2076C7.02379 10.1435 7.10797 10.1074 7.19215 10.1074H10.5994C10.7637 10.1074 10.9 10.2437 10.9 10.4081C10.9 10.5724 10.7637 10.7047 10.5994 10.7047Z" fill="white"/>
<path d="M4 25.8333C4 22.8878 6.38781 20.5 9.33333 20.5H25.3333C28.2789 20.5 30.6667 22.8878 30.6667 25.8333V25.8333C30.6667 28.7789 28.2789 31.1667 25.3333 31.1667H9.33333C6.38781 31.1667 4 28.7789 4 25.8333V25.8333Z" fill="#595FE5"/>
<path d="M7.43295 28.5001C7.20759 28.5001 7.0223 28.435 6.87708 28.3048C6.73686 28.1696 6.66675 28.0043 6.66675 27.809C6.66675 27.6087 6.73686 27.4409 6.87708 27.3057C7.0223 27.1705 7.20759 27.1029 7.43295 27.1029C7.65329 27.1029 7.83357 27.1705 7.97379 27.3057C8.11902 27.4409 8.19163 27.6087 8.19163 27.809C8.19163 28.0043 8.11902 28.1696 7.97379 28.3048C7.83357 28.435 7.65329 28.5001 7.43295 28.5001Z" fill="white"/>
<path d="M13.5192 23.1667V28.44H12.2346V26.2691H10.2365V28.44H8.95202V23.1667H10.2365V25.2325H12.2346V23.1667H13.5192Z" fill="white"/>
<path d="M18.2399 23.1667V24.1959H16.8427V28.44H15.5582V24.1959H14.161V23.1667H18.2399Z" fill="white"/>
<path d="M24.8564 23.1667V28.44H23.5719V25.2775L22.3925 28.44H21.3559L20.169 25.27V28.44H18.8845V23.1667H20.4019L21.8817 26.8175L23.3465 23.1667H24.8564Z" fill="white"/>
<path d="M27.0646 27.4484H28.7472V28.44H25.7801V23.1667H27.0646V27.4484Z" fill="white"/>
<defs>
<linearGradient id="paint0_linear_282_9191" x1="14" y1="1.83337" x2="14" y2="28.5" gradientUnits="userSpaceOnUse">
<stop stop-color="#FFD8A0"/>
<stop offset="1" stop-color="#FFC48E"/>
</linearGradient>
<linearGradient id="paint1_linear_282_9191" x1="22.1084" y1="1.85352" x2="22.1084" y2="10.9267" gradientUnits="userSpaceOnUse">
<stop stop-color="#FFD8A0"/>
<stop offset="1" stop-color="#FFC48E"/>
</linearGradient>
</defs>
</svg>
