<svg width="16" height="17" viewBox="0 0 16 17" fill="none" xmlns="http://www.w3.org/2000/svg">
<path d="M6.00004 15.1667H10C13.3334 15.1667 14.6667 13.8334 14.6667 10.5V6.50004C14.6667 3.16671 13.3334 1.83337 10 1.83337H6.00004C2.66671 1.83337 1.33337 3.16671 1.33337 6.50004V10.5C1.33337 13.8334 2.66671 15.1667 6.00004 15.1667Z" stroke="#59B4D1" stroke-width="1.5" stroke-linecap="round" stroke-linejoin="round"/>
<path d="M5.99996 7.16667C6.73634 7.16667 7.33329 6.56971 7.33329 5.83333C7.33329 5.09695 6.73634 4.5 5.99996 4.5C5.26358 4.5 4.66663 5.09695 4.66663 5.83333C4.66663 6.56971 5.26358 7.16667 5.99996 7.16667Z" stroke="#59B4D1" stroke-width="1.5" stroke-linecap="round" stroke-linejoin="round"/>
<path d="M1.78003 13.1333L5.0667 10.9266C5.59336 10.5733 6.35336 10.6133 6.8267 11.02L7.0467 11.2133C7.5667 11.66 8.4067 11.66 8.9267 11.2133L11.7 8.83329C12.22 8.38662 13.06 8.38662 13.58 8.83329L14.6667 9.76662" stroke="#59B4D1" stroke-width="1.5" stroke-linecap="round" stroke-linejoin="round"/>
</svg>
