<svg width="32" height="32" viewBox="0 0 32 32" fill="none" xmlns="http://www.w3.org/2000/svg">
<mask id="mask0_339_12787" style="mask-type:alpha" maskUnits="userSpaceOnUse" x="1" y="1" width="30" height="30">
<rect x="1.33337" y="1.33331" width="29.3333" height="29.3333" fill="white"/>
</mask>
<g mask="url(#mask0_339_12787)">
<path fill-rule="evenodd" clip-rule="evenodd" d="M2.91806 12.1742C0.805145 14.2871 0.805145 17.7128 2.91806 19.8258L12.1743 29.082C14.2872 31.1949 17.7129 31.1949 19.8258 29.082L29.082 19.8258C31.1949 17.7128 31.1949 14.2871 29.082 12.1742L19.8258 2.918C17.7129 0.805084 14.2872 0.805084 12.1743 2.918L2.91806 12.1742Z" fill="white"/>
<path fill-rule="evenodd" clip-rule="evenodd" d="M8.84833 11.4073C8.12675 11.6007 7.69854 12.3424 7.89188 13.0639C8.08523 13.7855 8.82692 14.2137 9.54849 14.0204L20.0007 11.2197C20.7223 11.0264 21.1505 10.2847 20.9571 9.56311C20.7638 8.84154 20.0221 8.41332 19.3005 8.60667L8.84833 11.4073ZM11.0428 22.3253C10.8494 21.6037 11.2776 20.862 11.9992 20.6687L22.4514 17.868C23.173 17.6747 23.9147 18.1029 24.108 18.8245C24.3014 19.5461 23.8731 20.2877 23.1516 20.4811L12.6994 23.2818C11.9778 23.4751 11.2361 23.0469 11.0428 22.3253ZM13.6901 15.1628C12.9686 15.3562 12.5403 16.0978 12.7337 16.8194C12.927 17.541 13.6687 17.9692 14.3903 17.7759L18.3099 16.7256C19.0315 16.5323 19.4597 15.7906 19.2663 15.069C19.073 14.3474 18.3313 13.9192 17.6097 14.1126L13.6901 15.1628Z" fill="#595FE5"/>
</g>
</svg>
