<svg width="20" height="20" viewBox="0 0 20 20" fill="none" xmlns="http://www.w3.org/2000/svg">
<path d="M10 1.66663V7.49996L11.6667 5.83329" stroke="#ADB0ED" stroke-width="1.5" stroke-linecap="round" stroke-linejoin="round"/>
<path d="M10 7.50004L8.33333 5.83337" stroke="#ADB0ED" stroke-width="1.5" stroke-linecap="round" stroke-linejoin="round"/>
<path d="M1.64999 10.8334H5.32499C5.64166 10.8334 5.92499 11.0084 6.06666 11.2917L7.04166 13.2417C7.32499 13.8084 7.89999 14.1667 8.53333 14.1667H11.475C12.1083 14.1667 12.6833 13.8084 12.9667 13.2417L13.9417 11.2917C14.0833 11.0084 14.375 10.8334 14.6833 10.8334H18.3167" stroke="#ADB0ED" stroke-width="1.5" stroke-linecap="round" stroke-linejoin="round"/>
<path d="M5.83334 3.44165C2.88334 3.87498 1.66667 5.60832 1.66667 9.16665V12.5C1.66667 16.6666 3.33334 18.3333 7.50001 18.3333H12.5C16.6667 18.3333 18.3333 16.6666 18.3333 12.5V9.16665C18.3333 5.60832 17.1167 3.87498 14.1667 3.44165" stroke="#ADB0ED" stroke-width="1.5" stroke-linecap="round" stroke-linejoin="round"/>
</svg>
