<svg width="20" height="20" viewBox="0 0 20 20" fill="none" xmlns="http://www.w3.org/2000/svg">
<g id="icons/bold/kanban">
<g id="kanban">
<path id="Vector" d="M8.24996 3.41663V16.5833C8.24996 17.1517 8.12669 17.4202 7.97506 17.5629C7.81577 17.7127 7.51058 17.8333 6.89163 17.8333H3.52496C2.906 17.8333 2.60082 17.7127 2.44152 17.5629C2.28989 17.4202 2.16663 17.1517 2.16663 16.5833V3.41663C2.16663 2.8482 2.28989 2.5797 2.44152 2.43705C2.60082 2.28719 2.906 2.16663 3.52496 2.16663H6.89163C7.51058 2.16663 7.81577 2.28719 7.97506 2.43705C8.12669 2.5797 8.24996 2.8482 8.24996 3.41663Z" fill="currentColor" stroke="currentColor"/>
<path id="Vector_2" d="M17.8333 3.41663V10.75C17.8333 11.3184 17.7101 11.5869 17.5584 11.7295C17.3991 11.8794 17.094 12 16.475 12H13.1083C12.4894 12 12.1842 11.8794 12.0249 11.7295C11.8733 11.5869 11.75 11.3184 11.75 10.75V3.41663C11.75 2.8482 11.8733 2.5797 12.0249 2.43705C12.1842 2.28719 12.4894 2.16663 13.1083 2.16663H16.475C17.094 2.16663 17.3991 2.28719 17.5584 2.43705C17.7101 2.5797 17.8333 2.8482 17.8333 3.41663Z" fill="currentColor" stroke="currentColor"/>
</g>
</g>
</svg>
