<svg width="20" height="20" viewBox="0 0 20 20" fill="none" xmlns="http://www.w3.org/2000/svg">
<path d="M18.3333 5.20829V9.45827C18.3333 10.5166 17.9833 11.4083 17.3583 12.025C16.7417 12.65 15.85 12.9999 14.7917 12.9999V14.5083C14.7917 15.0749 14.1583 15.4166 13.6917 15.1L12.8833 14.5666C12.9583 14.3083 12.9917 14.0249 12.9917 13.7249V10.3333C12.9917 8.63331 11.8583 7.49996 10.1583 7.49996H4.5C4.38333 7.49996 4.27501 7.50831 4.16667 7.51664V5.20829C4.16667 3.08329 5.58334 1.66663 7.70834 1.66663H14.7917C16.9167 1.66663 18.3333 3.08329 18.3333 5.20829Z" stroke="#ADB0ED" stroke-width="1.5" stroke-miterlimit="10" stroke-linecap="round" stroke-linejoin="round"/>
<path d="M12.9917 10.3334V13.725C12.9917 14.025 12.9583 14.3083 12.8833 14.5667C12.575 15.7917 11.5583 16.5583 10.1583 16.5583H7.89167L5.375 18.2333C5 18.4917 4.5 18.2167 4.5 17.7667V16.5583C3.65 16.5583 2.94167 16.275 2.45001 15.7833C1.95001 15.2833 1.66667 14.575 1.66667 13.725V10.3334C1.66667 8.75002 2.65001 7.65835 4.16667 7.51668C4.27501 7.50835 4.38333 7.5 4.5 7.5H10.1583C11.8583 7.5 12.9917 8.63335 12.9917 10.3334Z" stroke="#ADB0ED" stroke-width="1.5" stroke-miterlimit="10" stroke-linecap="round" stroke-linejoin="round"/>
<path d="M5 10.8334H9.58333" stroke="#ADB0ED" stroke-width="1.5" stroke-linecap="round"/>
<path d="M5 13.3334H6.66667" stroke="#ADB0ED" stroke-width="1.5" stroke-linecap="round"/>
</svg>
