<svg width="16" height="17" viewBox="0 0 16 17" fill="none" xmlns="http://www.w3.org/2000/svg">
<path d="M8.00002 15.8333C6.54963 15.8333 5.1318 15.4032 3.92584 14.5974C2.71988 13.7916 1.77995 12.6463 1.22491 11.3063C0.669864 9.96632 0.52464 8.49183 0.807598 7.0693C1.09056 5.64677 1.78899 4.3401 2.81457 3.31451C3.84016 2.28893 5.14683 1.5905 6.56936 1.30754C7.99189 1.02458 9.46638 1.1698 10.8064 1.72485C12.1464 2.27989 13.2917 3.21982 14.0975 4.42578C14.9033 5.63174 15.3334 7.04957 15.3334 8.49996C15.3312 10.4442 14.5578 12.3082 13.183 13.683C11.8082 15.0578 9.94427 15.8311 8.00002 15.8333V15.8333Z" fill="url(#paint0_linear_435_11586)"/>
<path d="M11.8667 11.1666C11.9534 10.8403 11.9982 10.5042 12 10.1666C12 10.0782 11.9649 9.99339 11.9024 9.93088C11.8399 9.86837 11.7551 9.83325 11.6667 9.83325H4.33333C4.24493 9.83325 4.16014 9.86837 4.09763 9.93088C4.03512 9.99339 4 10.0782 4 10.1666C4.00127 10.5042 4.04552 10.8402 4.13167 11.1666H11.8667Z" fill="white"/>
<path d="M4.13336 11.1666C4.35507 12.0235 4.85514 12.7825 5.55501 13.3243C6.25489 13.8662 7.11492 14.1602 8.00003 14.1602C8.88513 14.1602 9.74517 13.8662 10.445 13.3243C11.1449 12.7825 11.645 12.0235 11.8667 11.1666H4.13336Z" fill="black"/>
<path d="M6.0047 13.6283C6.61055 13.9809 7.29903 14.1667 8.00003 14.1667C8.70103 14.1667 9.38951 13.9809 9.99537 13.6283C9.78836 13.2841 9.49583 12.9993 9.14619 12.8015C8.79655 12.6038 8.40171 12.4999 8.00003 12.4999C7.59836 12.4999 7.20351 12.6038 6.85388 12.8015C6.50424 12.9993 6.2117 13.2841 6.0047 13.6283V13.6283Z" fill="#E5646C"/>
<path d="M4 8.83335C3.92481 8.8335 3.85179 8.80822 3.79278 8.76163C3.73378 8.71504 3.69225 8.64987 3.67496 8.57671C3.65766 8.50354 3.66561 8.42668 3.6975 8.3586C3.7294 8.29052 3.78337 8.23522 3.85066 8.20169L5.25466 7.50002L3.851 6.80002C3.77187 6.7605 3.71169 6.69117 3.68368 6.60728C3.65568 6.52339 3.66214 6.43181 3.70166 6.35269C3.74118 6.27356 3.81051 6.21338 3.8944 6.18537C3.97829 6.15737 4.06987 6.16384 4.14899 6.20335L6.149 7.20335C6.20446 7.231 6.25113 7.27356 6.28374 7.32626C6.31636 7.37896 6.33364 7.43971 6.33364 7.50169C6.33364 7.56366 6.31636 7.62441 6.28374 7.67711C6.25113 7.72981 6.20446 7.77237 6.149 7.80002L4.14899 8.80002C4.10258 8.82251 4.05157 8.83392 4 8.83335Z" fill="#1B1D1F"/>
<path d="M12 8.83331C11.9484 8.83331 11.8975 8.82133 11.8513 8.79831L9.85133 7.79831C9.79586 7.77066 9.7492 7.7281 9.71658 7.6754C9.68397 7.6227 9.66669 7.56195 9.66669 7.49998C9.66669 7.438 9.68397 7.37725 9.71658 7.32455C9.7492 7.27185 9.79586 7.22929 9.85133 7.20164L11.8513 6.20164C11.8905 6.18208 11.9332 6.17042 11.9768 6.16733C12.0205 6.16425 12.0644 6.1698 12.1059 6.18366C12.1475 6.19753 12.1859 6.21944 12.2189 6.24815C12.252 6.27686 12.2791 6.3118 12.2987 6.35098C12.3182 6.39015 12.3299 6.4328 12.333 6.47649C12.3361 6.52017 12.3305 6.56403 12.3166 6.60557C12.3028 6.64711 12.2809 6.68551 12.2522 6.71858C12.2234 6.75165 12.1885 6.77874 12.1493 6.79831L10.7453 7.49998L12.149 8.20164C12.2163 8.23517 12.2702 8.29044 12.3021 8.35848C12.334 8.42653 12.342 8.50336 12.3247 8.5765C12.3075 8.64965 12.266 8.71482 12.2071 8.76144C12.1481 8.80805 12.0752 8.83338 12 8.83331V8.83331Z" fill="#1B1D1F"/>
<defs>
<linearGradient id="paint0_linear_435_11586" x1="8.00002" y1="1.16663" x2="8.00002" y2="15.8333" gradientUnits="userSpaceOnUse">
<stop stop-color="#FFD764"/>
<stop offset="1" stop-color="#FFBC7D"/>
</linearGradient>
</defs>
</svg>
