<svg width="32" height="33" viewBox="0 0 32 33" fill="none" xmlns="http://www.w3.org/2000/svg">
<path d="M25.3334 12.7534H21.48C18.32 12.7534 15.7467 10.18 15.7467 7.02004V3.16671C15.7467 2.43337 15.1467 1.83337 14.4134 1.83337H8.76004C4.65337 1.83337 1.33337 4.50004 1.33337 9.26004V21.0734C1.33337 25.8334 4.65337 28.5 8.76004 28.5H19.24C23.3467 28.5 26.6667 25.8334 26.6667 21.0734V14.0867C26.6667 13.3534 26.0667 12.7534 25.3334 12.7534Z" fill="url(#paint0_linear_282_9119)"/>
<path d="M19.0663 2.11332C18.5197 1.56666 17.573 1.93999 17.573 2.69999V7.35332C17.573 9.29999 19.2263 10.9133 21.2397 10.9133C22.5063 10.9267 24.2663 10.9267 25.773 10.9267C26.533 10.9267 26.933 10.0333 26.3997 9.49999C24.4797 7.56666 21.0397 4.08666 19.0663 2.11332Z" fill="#E5646C"/>
<path fill-rule="evenodd" clip-rule="evenodd" d="M6.44449 8.5C5.83084 8.5 5.33337 9.09695 5.33337 9.83333C5.33337 10.5697 5.83084 11.1667 6.44449 11.1667H10.8889C11.5026 11.1667 12 10.5697 12 9.83333C12 9.09695 11.5026 8.5 10.8889 8.5H6.44449ZM6.44449 13.8328C5.83084 13.8328 5.33337 14.4298 5.33337 15.1661C5.33337 15.9025 5.83084 16.4995 6.44449 16.4995H14.2223C14.8359 16.4995 15.3334 15.9025 15.3334 15.1661C15.3334 14.4298 14.8359 13.8328 14.2223 13.8328H6.44449Z" fill="white"/>
<path d="M8 25.8333C8 22.8878 10.3878 20.5 13.3333 20.5H25.3333C28.2789 20.5 30.6667 22.8878 30.6667 25.8333V25.8333C30.6667 28.7789 28.2789 31.1667 25.3333 31.1667H13.3333C10.3878 31.1667 8 28.7789 8 25.8333V25.8333Z" fill="#E5646C"/>
<path d="M12.7662 28.5001C12.5408 28.5001 12.3556 28.435 12.2103 28.3048C12.0701 28.1696 12 28.0043 12 27.809C12 27.6087 12.0701 27.4409 12.2103 27.3057C12.3556 27.1705 12.5408 27.1029 12.7662 27.1029C12.9865 27.1029 13.1668 27.1705 13.307 27.3057C13.4523 27.4409 13.5249 27.6087 13.5249 27.809C13.5249 28.0043 13.4523 28.1696 13.307 28.3048C13.1668 28.435 12.9865 28.5001 12.7662 28.5001Z" fill="white"/>
<path d="M18.304 24.8644C18.304 25.1699 18.2339 25.4503 18.0937 25.7057C17.9535 25.9561 17.7382 26.1589 17.4477 26.3142C17.1573 26.4694 16.7967 26.547 16.366 26.547H15.5698V28.44H14.2853V23.1667H16.366C16.7867 23.1667 17.1422 23.2394 17.4327 23.3846C17.7231 23.5298 17.941 23.7301 18.0862 23.9855C18.2314 24.2409 18.304 24.5339 18.304 24.8644ZM16.2684 25.5254C16.5138 25.5254 16.6965 25.4678 16.8167 25.3527C16.9369 25.2375 16.997 25.0747 16.997 24.8644C16.997 24.6541 16.9369 24.4913 16.8167 24.3761C16.6965 24.261 16.5138 24.2034 16.2684 24.2034H15.5698V25.5254H16.2684Z" fill="white"/>
<path d="M20.9484 23.1667C21.5042 23.1667 21.99 23.2769 22.4056 23.4973C22.8213 23.7176 23.1418 24.0281 23.3671 24.4287C23.5975 24.8243 23.7127 25.2826 23.7127 25.8034C23.7127 26.3192 23.5975 26.7774 23.3671 27.178C23.1418 27.5786 22.8188 27.8891 22.3981 28.1095C21.9825 28.3298 21.4992 28.44 20.9484 28.44H18.9728V23.1667H20.9484ZM20.8657 27.3283C21.3515 27.3283 21.7296 27.1955 22 26.9301C22.2704 26.6647 22.4056 26.2891 22.4056 25.8034C22.4056 25.3176 22.2704 24.9395 22 24.6691C21.7296 24.3987 21.3515 24.2635 20.8657 24.2635H20.2573V27.3283H20.8657Z" fill="white"/>
<path d="M27.8634 23.1667V24.1959H25.715V25.3076H27.3225V26.3067H25.715V28.44H24.4305V23.1667H27.8634Z" fill="white"/>
<defs>
<linearGradient id="paint0_linear_282_9119" x1="14" y1="1.83337" x2="14" y2="28.5" gradientUnits="userSpaceOnUse">
<stop stop-color="#FFD8A0"/>
<stop offset="1" stop-color="#FFC48E"/>
</linearGradient>
</defs>
</svg>
