<svg width="16" height="17" viewBox="0 0 16 17" fill="none" xmlns="http://www.w3.org/2000/svg">
<path d="M13.3333 5.16671V11.8334C13.3333 14.5 12.6666 15.1667 9.99996 15.1667H5.99996C3.33329 15.1667 2.66663 14.5 2.66663 11.8334V5.16671C2.66663 2.50004 3.33329 1.83337 5.99996 1.83337H9.99996C12.6666 1.83337 13.3333 2.50004 13.3333 5.16671Z" stroke="#727880" stroke-width="1.5" stroke-linecap="round" stroke-linejoin="round"/>
<path d="M9.33329 4.16675H6.66663" stroke="#727880" stroke-width="1.5" stroke-linecap="round" stroke-linejoin="round"/>
<path d="M8.00001 13.2334C8.5707 13.2334 9.03334 12.7708 9.03334 12.2001C9.03334 11.6294 8.5707 11.1667 8.00001 11.1667C7.42931 11.1667 6.96667 11.6294 6.96667 12.2001C6.96667 12.7708 7.42931 13.2334 8.00001 13.2334Z" stroke="#727880" stroke-width="1.5" stroke-linecap="round" stroke-linejoin="round"/>
</svg>
