<svg width="17" height="16" viewBox="0 0 17 16" fill="none" xmlns="http://www.w3.org/2000/svg">
<path d="M8.80287 5.26675L8.8027 5.26665C8.16274 4.89846 7.39816 4.89672 6.76142 5.26815C6.1279 5.63771 5.74669 6.30211 5.74669 7.03337V9.26671C5.74669 10.0059 6.12895 10.663 6.76142 11.0319C7.08016 11.2179 7.4275 11.3067 7.78002 11.3067C8.12425 11.3067 8.47792 11.2187 8.79724 11.0327C8.7977 11.0325 8.79816 11.0322 8.79862 11.0319L10.7294 9.9201C11.3722 9.55023 11.7534 8.8843 11.7534 8.14671C11.7534 7.40756 11.3711 6.75043 10.7386 6.38148L10.7362 6.38008L8.80287 5.26675ZM2.31335 8.00004C2.31335 4.59618 5.07616 1.83337 8.48002 1.83337C11.8902 1.83337 14.6467 4.59586 14.6467 8.00004C14.6467 11.4039 11.8839 14.1667 8.48002 14.1667C5.07616 14.1667 2.31335 11.4039 2.31335 8.00004Z" fill="white" stroke="white"/>
</svg>
