<svg width="32" height="33" viewBox="0 0 32 33" fill="none" xmlns="http://www.w3.org/2000/svg">
<path d="M25.3334 12.7534H21.48C18.32 12.7534 15.7467 10.18 15.7467 7.02004V3.16671C15.7467 2.43337 15.1467 1.83337 14.4134 1.83337H8.76004C4.65337 1.83337 1.33337 4.50004 1.33337 9.26004V21.0734C1.33337 25.8334 4.65337 28.5 8.76004 28.5H19.24C23.3467 28.5 26.6667 25.8334 26.6667 21.0734V14.0867C26.6667 13.3534 26.0667 12.7534 25.3334 12.7534Z" fill="url(#paint0_linear_282_9161)"/>
<path d="M19.0663 2.11332C18.5197 1.56666 17.573 1.93999 17.573 2.69999V7.35332C17.573 9.29999 19.2263 10.9133 21.2397 10.9133C22.5063 10.9267 24.2663 10.9267 25.773 10.9267C26.533 10.9267 26.933 10.0333 26.3997 9.49999C24.4797 7.56666 21.0397 4.08666 19.0663 2.11332Z" fill="url(#paint1_linear_282_9161)"/>
<path fill-rule="evenodd" clip-rule="evenodd" d="M13.2669 9.27522C12.743 10.5832 11.547 12.2911 10.4071 13.4071C10.2431 12.3751 9.41909 11.5671 8.37913 11.4231C9.49909 10.2792 11.219 9.06723 12.531 8.53925C12.763 8.45126 12.995 8.51925 13.139 8.66325C13.2909 8.81524 13.3629 9.04323 13.2669 9.27522ZM10.0549 13.7354C9.97486 13.8034 9.89486 13.8714 9.81487 13.9354L9.09889 14.5074C9.09889 14.5018 9.09803 14.4954 9.09711 14.4885C9.09604 14.4805 9.09489 14.472 9.09489 14.4634C9.0389 14.0354 8.8389 13.6394 8.51492 13.3154C8.18693 12.9874 7.77894 12.7874 7.33096 12.7314C7.32496 12.7314 7.31796 12.7304 7.31096 12.7294C7.30396 12.7284 7.29696 12.7274 7.29096 12.7274L7.87094 11.9955C7.92694 11.9235 7.98694 11.8555 8.05093 11.7835L8.32292 11.8195C9.18289 11.9395 9.87486 12.6155 10.0109 13.4714L10.0549 13.7354ZM8.22654 15.9226C8.54653 15.6067 8.71453 15.1867 8.71453 14.7467C8.71453 14.6743 8.70727 14.602 8.69967 14.5261L8.69853 14.5147C8.65453 14.1827 8.50253 13.8667 8.23454 13.5987C7.95855 13.3267 7.63057 13.1708 7.29058 13.1268C7.21058 13.1188 7.12659 13.1148 7.05059 13.1188C6.27462 13.1348 5.54265 13.6947 5.44665 14.5707L5.33865 15.5547C5.27866 16.0946 5.73864 16.5546 6.27462 16.4946L7.25458 16.3866C7.65457 16.3386 7.98255 16.1706 8.22654 15.9226Z" fill="white"/>
<path d="M8 25.8333C8 22.8878 10.3878 20.5 13.3333 20.5H25.3333C28.2789 20.5 30.6667 22.8878 30.6667 25.8333V25.8333C30.6667 28.7789 28.2789 31.1667 25.3333 31.1667H13.3333C10.3878 31.1667 8 28.7789 8 25.8333V25.8333Z" fill="#9E57E5"/>
<path d="M12.7556 28.5001C12.5333 28.5001 12.3506 28.4359 12.2074 28.3075C12.0691 28.1742 12 28.0112 12 27.8186C12 27.6211 12.0691 27.4556 12.2074 27.3223C12.3506 27.189 12.5333 27.1223 12.7556 27.1223C12.9728 27.1223 13.1506 27.189 13.2889 27.3223C13.4321 27.4556 13.5037 27.6211 13.5037 27.8186C13.5037 28.0112 13.4321 28.1742 13.2889 28.3075C13.1506 28.4359 12.9728 28.5001 12.7556 28.5001Z" fill="white"/>
<path d="M18.2165 24.9149C18.2165 25.2161 18.1474 25.4927 18.0091 25.7445C17.8708 25.9914 17.6585 26.1914 17.372 26.3445C17.0856 26.4976 16.7301 26.5742 16.3054 26.5742H15.5202V28.4408H14.2535V23.2408H16.3054C16.7202 23.2408 17.0708 23.3124 17.3572 23.4556C17.6437 23.5988 17.8585 23.7964 18.0017 24.0482C18.1449 24.3001 18.2165 24.589 18.2165 24.9149ZM16.2091 25.5667C16.4511 25.5667 16.6313 25.51 16.7498 25.3964C16.8683 25.2828 16.9276 25.1223 16.9276 24.9149C16.9276 24.7075 16.8683 24.547 16.7498 24.4334C16.6313 24.3198 16.4511 24.263 16.2091 24.263H15.5202V25.5667H16.2091Z" fill="white"/>
<path d="M20.7574 28.4927C20.3772 28.4927 20.0364 28.4309 19.7352 28.3075C19.434 28.184 19.192 28.0013 19.0093 27.7593C18.8315 27.5174 18.7377 27.226 18.7278 26.8853H20.0759C20.0957 27.0779 20.1623 27.226 20.2759 27.3297C20.3895 27.4285 20.5377 27.4779 20.7204 27.4779C20.908 27.4779 21.0562 27.4359 21.1648 27.3519C21.2735 27.263 21.3278 27.1421 21.3278 26.989C21.3278 26.8606 21.2833 26.7544 21.1944 26.6705C21.1105 26.5865 21.0043 26.5174 20.8759 26.463C20.7525 26.4087 20.5747 26.347 20.3426 26.2779C20.0068 26.1742 19.7327 26.0705 19.5204 25.9667C19.308 25.863 19.1253 25.71 18.9722 25.5075C18.8191 25.305 18.7426 25.0408 18.7426 24.7149C18.7426 24.2309 18.9179 23.8532 19.2685 23.5816C19.6191 23.305 20.0759 23.1667 20.6389 23.1667C21.2117 23.1667 21.6735 23.305 22.0241 23.5816C22.3747 23.8532 22.5623 24.2334 22.587 24.7223H21.2167C21.2068 24.5544 21.1451 24.4235 21.0315 24.3297C20.9179 24.2309 20.7722 24.1816 20.5944 24.1816C20.4414 24.1816 20.3179 24.2235 20.2241 24.3075C20.1302 24.3865 20.0833 24.5026 20.0833 24.6556C20.0833 24.8235 20.1623 24.9544 20.3204 25.0482C20.4784 25.1421 20.7253 25.2433 21.0611 25.3519C21.3969 25.4655 21.6685 25.5742 21.8759 25.6779C22.0883 25.7816 22.271 25.9322 22.4241 26.1297C22.5772 26.3272 22.6537 26.5816 22.6537 26.8927C22.6537 27.189 22.5772 27.4581 22.4241 27.7001C22.2759 27.9421 22.0586 28.1346 21.7722 28.2779C21.4858 28.4211 21.1475 28.4927 20.7574 28.4927Z" fill="white"/>
<path d="M25.3814 23.2408C25.9295 23.2408 26.4085 23.3495 26.8184 23.5667C27.2283 23.784 27.5443 24.0902 27.7666 24.4853C27.9937 24.8754 28.1073 25.3272 28.1073 25.8408C28.1073 26.3495 27.9937 26.8013 27.7666 27.1964C27.5443 27.5914 27.2258 27.8976 26.811 28.1149C26.4011 28.3322 25.9246 28.4408 25.3814 28.4408H23.4332V23.2408H25.3814ZM25.2999 27.3445C25.7789 27.3445 26.1517 27.2137 26.4184 26.9519C26.6851 26.6902 26.8184 26.3198 26.8184 25.8408C26.8184 25.3618 26.6851 24.989 26.4184 24.7223C26.1517 24.4556 25.7789 24.3223 25.2999 24.3223H24.6999V27.3445H25.2999Z" fill="white"/>
<defs>
<linearGradient id="paint0_linear_282_9161" x1="14" y1="1.83337" x2="14" y2="28.5" gradientUnits="userSpaceOnUse">
<stop stop-color="#FFD8A0"/>
<stop offset="1" stop-color="#FFC48E"/>
</linearGradient>
<linearGradient id="paint1_linear_282_9161" x1="22.1084" y1="1.85352" x2="22.1084" y2="10.9267" gradientUnits="userSpaceOnUse">
<stop stop-color="#FFD8A0"/>
<stop offset="1" stop-color="#FFC48E"/>
</linearGradient>
</defs>
</svg>
