<svg width="16" height="16" viewBox="0 0 16 16" fill="none" xmlns="http://www.w3.org/2000/svg">
<path d="M4.68126 4.64311C5.67804 3.26331 7.1999 2.4407 8.80972 2.29241" stroke="#727880" stroke-width="1.5" stroke-linecap="round" stroke-linejoin="round"/>
<path d="M4.53827 11.1576C5.01133 11.8849 5.66343 12.5154 6.46595 12.9788C7.2396 13.4254 8.06706 13.6722 8.9028 13.7313" stroke="#727880" stroke-width="1.5" stroke-linecap="round" stroke-linejoin="round"/>
<path d="M11.1858 4.80336C12.0723 5.31514 13.2058 5.01143 13.7175 4.12499C14.2293 3.23856 13.9256 2.10508 13.0392 1.59329C12.1527 1.08151 11.0193 1.38522 10.5075 2.27166C9.99569 3.1581 10.2994 4.29158 11.1858 4.80336Z" stroke="#727880" stroke-width="1.5" stroke-linecap="round" stroke-linejoin="round"/>
<path d="M2.93835 9.44862C3.82478 9.96041 4.95826 9.65669 5.47005 8.77026C5.98183 7.88382 5.67812 6.75034 4.79168 6.23856C3.90524 5.72677 2.77176 6.03049 2.25998 6.91692C1.74819 7.80336 2.05191 8.93684 2.93835 9.44862Z" stroke="#727880" stroke-width="1.5" stroke-linecap="round" stroke-linejoin="round"/>
<path d="M11.2176 14.2285C12.104 14.7403 13.2375 14.4366 13.7493 13.5502C14.2611 12.6637 13.9574 11.5302 13.0709 11.0185C12.1845 10.5067 11.051 10.8104 10.5392 11.6968C10.0274 12.5833 10.3311 13.7167 11.2176 14.2285Z" stroke="#727880" stroke-width="1.5" stroke-linecap="round" stroke-linejoin="round"/>
</svg>
