<svg width="16" height="17" viewBox="0 0 16 17" fill="none" xmlns="http://www.w3.org/2000/svg">
<path d="M9.16667 7.66666C9.16667 7.85076 9.01743 7.99999 8.83333 7.99999C8.64924 7.99999 8.5 7.85076 8.5 7.66666C8.5 7.48257 8.64924 7.33333 8.83333 7.33333C9.01743 7.33333 9.16667 7.48257 9.16667 7.66666Z" stroke="#727880"/>
<path d="M14.16 5.70529V5.70666V11.2933C14.16 12.4072 13.8299 13.2363 13.2798 13.7864C12.7296 14.3366 11.9005 14.6667 10.7866 14.6667H5.20665C4.09276 14.6667 3.26382 14.3366 2.71375 13.7858C2.16362 13.235 1.83331 12.4043 1.83331 11.2867V5.70666C1.83331 4.59276 2.16341 3.76367 2.71353 3.21355C3.26366 2.66342 4.09275 2.33333 5.20665 2.33333H10.7933C11.9073 2.33333 12.7362 2.66346 13.2854 3.21333C13.8344 3.76308 14.163 4.59171 14.16 5.70529ZM10.9451 9.83527L10.9469 9.83355C12.1281 8.65228 12.1299 6.73477 10.9457 5.55858C9.76468 4.38557 7.84901 4.38385 6.67309 5.55977C5.9284 6.30446 5.65575 7.33659 5.8462 8.29333L4.47976 9.65978L4.4744 9.66513L4.46921 9.67065C4.35537 9.79161 4.27657 9.94291 4.22942 10.0831C4.18353 10.2194 4.15014 10.3973 4.17874 10.5803L4.27798 11.3015L4.27895 11.3085L4.28012 11.3155C4.31961 11.5525 4.44177 11.76 4.59313 11.9127C4.74427 12.0653 4.95535 12.194 5.20453 12.2286L5.20515 12.2287L5.93182 12.3287L5.93181 12.3287L5.93796 12.3295C6.11131 12.3511 6.28466 12.3211 6.42755 12.2717C6.56776 12.2232 6.7253 12.1399 6.85084 12.0096L7.11376 11.7467C7.23512 11.6319 7.29914 11.4879 7.31351 11.3413C7.45458 11.3265 7.59318 11.2667 7.7057 11.1547C7.70609 11.1543 7.70648 11.1539 7.70687 11.1535L8.2104 10.6548C9.17055 10.8509 10.2024 10.5708 10.9451 9.83527Z" fill="#727880" stroke="#727880"/>
</svg>
