<svg width="32" height="33" viewBox="0 0 32 33" fill="none" xmlns="http://www.w3.org/2000/svg">
<path d="M25.3334 12.7534H21.48C18.32 12.7534 15.7467 10.18 15.7467 7.02004V3.16671C15.7467 2.43337 15.1467 1.83337 14.4134 1.83337H8.76004C4.65337 1.83337 1.33337 4.50004 1.33337 9.26004V21.0734C1.33337 25.8334 4.65337 28.5 8.76004 28.5H19.24C23.3467 28.5 26.6667 25.8334 26.6667 21.0734V14.0867C26.6667 13.3534 26.0667 12.7534 25.3334 12.7534Z" fill="url(#paint0_linear_282_9147)"/>
<path d="M19.0663 2.11332C18.5197 1.56666 17.573 1.93999 17.573 2.69999V7.35332C17.573 9.29999 19.2263 10.9133 21.2397 10.9133C22.5063 10.9267 24.2663 10.9267 25.773 10.9267C26.533 10.9267 26.933 10.0333 26.3997 9.49999C24.4797 7.56666 21.0397 4.08666 19.0663 2.11332Z" fill="url(#paint1_linear_282_9147)"/>
<path d="M8 25.8333C8 22.8878 10.3878 20.5 13.3333 20.5H25.3333C28.2789 20.5 30.6667 22.8878 30.6667 25.8333V25.8333C30.6667 28.7789 28.2789 31.1667 25.3333 31.1667H13.3333C10.3878 31.1667 8 28.7789 8 25.8333V25.8333Z" fill="#59B4D1"/>
<path d="M11.4223 28.5001C11.2001 28.5001 11.0174 28.4359 10.8742 28.3075C10.7359 28.1742 10.6667 28.0112 10.6667 27.8186C10.6667 27.6211 10.7359 27.4556 10.8742 27.3223C11.0174 27.189 11.2001 27.1223 11.4223 27.1223C11.6396 27.1223 11.8174 27.189 11.9556 27.3223C12.0988 27.4556 12.1705 27.6211 12.1705 27.8186C12.1705 28.0112 12.0988 28.1742 11.9556 28.3075C11.8174 28.4359 11.6396 28.5001 11.4223 28.5001Z" fill="white"/>
<path d="M14.8018 28.4927C14.4215 28.4927 14.0808 28.4309 13.7795 28.3075C13.4783 28.184 13.2363 28.0013 13.0536 27.7593C12.8758 27.5174 12.782 27.226 12.7721 26.8853H14.1203C14.14 27.0779 14.2067 27.226 14.3203 27.3297C14.4339 27.4285 14.582 27.4779 14.7647 27.4779C14.9524 27.4779 15.1005 27.4359 15.2092 27.3519C15.3178 27.263 15.3721 27.1421 15.3721 26.989C15.3721 26.8606 15.3277 26.7544 15.2388 26.6705C15.1548 26.5865 15.0487 26.5174 14.9203 26.463C14.7968 26.4087 14.619 26.347 14.3869 26.2779C14.0511 26.1742 13.7771 26.0705 13.5647 25.9667C13.3524 25.863 13.1697 25.71 13.0166 25.5075C12.8635 25.305 12.7869 25.0408 12.7869 24.7149C12.7869 24.2309 12.9623 23.8532 13.3129 23.5816C13.6635 23.305 14.1203 23.1667 14.6832 23.1667C15.2561 23.1667 15.7178 23.305 16.0684 23.5816C16.419 23.8532 16.6067 24.2334 16.6314 24.7223H15.261C15.2511 24.5544 15.1894 24.4235 15.0758 24.3297C14.9623 24.2309 14.8166 24.1816 14.6388 24.1816C14.4857 24.1816 14.3623 24.2235 14.2684 24.3075C14.1746 24.3865 14.1277 24.5026 14.1277 24.6556C14.1277 24.8235 14.2067 24.9544 14.3647 25.0482C14.5227 25.1421 14.7697 25.2433 15.1055 25.3519C15.4413 25.4655 15.7129 25.5742 15.9203 25.6779C16.1326 25.7816 16.3153 25.9322 16.4684 26.1297C16.6215 26.3272 16.6981 26.5816 16.6981 26.8927C16.6981 27.189 16.6215 27.4581 16.4684 27.7001C16.3203 27.9421 16.103 28.1346 15.8166 28.2779C15.5302 28.4211 15.1919 28.4927 14.8018 28.4927Z" fill="white"/>
<path d="M22.3591 23.2408L20.5146 28.4408H18.9294L17.085 23.2408H18.4331L19.722 27.1667L21.0183 23.2408H22.3591Z" fill="white"/>
<path d="M26.3403 24.8853C26.2465 24.7124 26.1107 24.5816 25.9329 24.4927C25.7601 24.3988 25.5551 24.3519 25.3181 24.3519C24.9082 24.3519 24.5798 24.4877 24.3329 24.7593C24.086 25.026 23.9625 25.384 23.9625 25.8334C23.9625 26.3124 24.0909 26.6877 24.3477 26.9593C24.6094 27.226 24.9675 27.3593 25.4218 27.3593C25.7329 27.3593 25.9946 27.2803 26.207 27.1223C26.4243 26.9643 26.5823 26.7371 26.681 26.4408H25.0736V25.5075H27.8292V26.6853C27.7354 27.0013 27.5749 27.2951 27.3477 27.5667C27.1255 27.8384 26.8415 28.0581 26.4959 28.226C26.1502 28.3939 25.7601 28.4779 25.3255 28.4779C24.8119 28.4779 24.3526 28.3667 23.9477 28.1445C23.5477 27.9174 23.2341 27.6038 23.007 27.2038C22.7847 26.8038 22.6736 26.347 22.6736 25.8334C22.6736 25.3198 22.7847 24.863 23.007 24.463C23.2341 24.0581 23.5477 23.7445 23.9477 23.5223C24.3477 23.2951 24.8045 23.1816 25.3181 23.1816C25.9403 23.1816 26.4638 23.3322 26.8885 23.6334C27.3181 23.9346 27.602 24.3519 27.7403 24.8853H26.3403Z" fill="white"/>
<path fill-rule="evenodd" clip-rule="evenodd" d="M11.0739 13.4552L11.5161 13.0667C12.2021 12.4592 12.2228 12.0335 11.6856 11.3475L9.53241 8.61164C9.33368 8.36458 9.01995 8.56299 9.01995 8.88006V10.2441C9.01582 10.4218 8.87944 10.5623 8.70586 10.5582C8.53229 10.5623 8.39178 10.4218 8.39591 10.2441V8.88368C8.39591 8.56483 8.07389 8.36005 7.88345 8.61577L5.72204 11.3475C5.17652 12.0335 5.18065 12.4799 5.89148 13.0626L6.32542 13.4511C6.47419 13.5874 6.67256 13.6618 6.87507 13.6618H10.5284C10.7268 13.6618 10.921 13.5874 11.0739 13.4552ZM7.8008 16.5001H9.58613C10.2639 16.5001 10.7061 16.0207 10.5739 15.4297L10.359 14.4751C10.3135 14.285 10.1482 14.1527 9.95395 14.1527H7.43712C7.24288 14.1527 7.07344 14.285 7.03211 14.4751L6.81721 15.4339C6.69323 15.9835 7.16436 16.5001 7.8008 16.5001Z" fill="white"/>
<defs>
<linearGradient id="paint0_linear_282_9147" x1="14" y1="1.83337" x2="14" y2="28.5" gradientUnits="userSpaceOnUse">
<stop stop-color="#FFD8A0"/>
<stop offset="1" stop-color="#FFC48E"/>
</linearGradient>
<linearGradient id="paint1_linear_282_9147" x1="22.1084" y1="1.85352" x2="22.1084" y2="10.9267" gradientUnits="userSpaceOnUse">
<stop stop-color="#FFD8A0"/>
<stop offset="1" stop-color="#FFC48E"/>
</linearGradient>
</defs>
</svg>
