<svg width="20" height="20" viewBox="0 0 20 20" fill="none" xmlns="http://www.w3.org/2000/svg">
<path d="M16.5833 11.25H3.41666C2.16666 11.25 1.66666 11.7833 1.66666 13.1083V16.475C1.66666 17.8 2.16666 18.3333 3.41666 18.3333H16.5833C17.8333 18.3333 18.3333 17.8 18.3333 16.475V13.1083C18.3333 11.7833 17.8333 11.25 16.5833 11.25Z" stroke="currentColor" stroke-width="1.5" stroke-linecap="round" stroke-linejoin="round"/>
<path d="M10.75 1.66669H3.41666C2.16666 1.66669 1.66666 2.20002 1.66666 3.52502V6.89169C1.66666 8.21669 2.16666 8.75002 3.41666 8.75002H10.75C12 8.75002 12.5 8.21669 12.5 6.89169V3.52502C12.5 2.20002 12 1.66669 10.75 1.66669Z" stroke="currentColor" stroke-width="1.5" stroke-linecap="round" stroke-linejoin="round"/>
</svg>
