<svg width="13" height="12" viewBox="0 0 13 12" fill="none" xmlns="http://www.w3.org/2000/svg">
<path d="M10.425 6.47003C10.425 6.87003 10.75 7.20003 11.15 7.20003C11.34 7.20003 11.5 7.35503 11.5 7.54503C11.5 9.46503 10.92 10.045 9.00005 10.045H6.37505V9.25003C6.37505 9.05503 6.22505 8.89503 6.03505 8.88003C6.02505 8.87503 6.01005 8.87503 6.00005 8.87503C5.79505 8.87503 5.62505 9.04503 5.62505 9.25003V10.045H4.74505C3.80505 10.045 3.32005 9.34003 2.88005 8.27503L2.79505 8.06503C2.72505 7.88503 2.81005 7.68003 2.99005 7.61003C3.17505 7.54003 3.32005 7.39503 3.39505 7.20503C3.47505 7.02003 3.47505 6.81503 3.40005 6.63003C3.24005 6.24503 2.80005 6.06003 2.41005 6.21503C2.32505 6.25503 2.22505 6.25503 2.14005 6.21503C2.05505 6.18003 1.99005 6.11003 1.95005 6.02003L1.87505 5.82003C1.13005 4.01003 1.45505 3.23503 3.26505 2.48503L4.49005 1.98003C4.67005 1.90503 4.87505 1.99003 4.94505 2.17003L6.03505 4.54503C5.83005 4.54503 5.62505 4.71003 5.62505 4.91503V7.08503C5.62505 7.29003 5.79505 7.46003 6.00005 7.46003C6.01005 7.46003 6.02505 7.46003 6.03505 7.45503C6.22505 7.44003 6.37505 7.28003 6.37505 7.08503V4.91503C6.37505 4.72003 6.22505 4.56003 6.03505 4.54503V2.46503H9.00005C10.92 2.46503 11.5 3.04503 11.5 4.96503V5.39003C11.5 5.58503 11.34 5.74003 11.15 5.74003C10.75 5.74003 10.425 6.06503 10.425 6.47003Z" fill="currentColor"/>
</svg>
