<svg width="16" height="16" viewBox="0 0 16 16" fill="none" xmlns="http://www.w3.org/2000/svg">
<path d="M6.43343 2.92411L6.43351 2.92421L6.44208 2.91673L7.48506 2.00661C7.7671 1.77159 8.24378 1.77524 8.51454 2.00624C8.51471 2.00639 8.51489 2.00653 8.51506 2.00668L9.56587 2.91118C9.56614 2.91141 9.56641 2.91164 9.56668 2.91188C9.72581 3.04954 9.92884 3.15389 10.1167 3.22369C10.3048 3.29358 10.5256 3.34666 10.7333 3.34666H11.8667C12.2972 3.34666 12.6533 3.70281 12.6533 4.13333V5.26667C12.6533 5.47702 12.7061 5.69788 12.7766 5.88666C12.8471 6.07518 12.9516 6.27562 13.0883 6.43352C13.0885 6.43372 13.0886 6.43393 13.0888 6.43413L13.9933 7.48494C13.9935 7.48513 13.9936 7.48532 13.9938 7.48551C14.2263 7.75811 14.2272 8.24242 13.9989 8.51636L13.0955 9.56587C13.0952 9.56617 13.095 9.56648 13.0947 9.56679C12.9571 9.7259 12.8528 9.92888 12.783 10.1167C12.7131 10.3048 12.66 10.5256 12.66 10.7333V11.8667C12.66 12.2972 12.3039 12.6533 11.8733 12.6533H10.74C10.5296 12.6533 10.3088 12.7061 10.12 12.7766C9.93146 12.8471 9.73097 12.9517 9.57306 13.0884C9.57289 13.0885 9.57271 13.0887 9.57254 13.0888L8.52274 13.9924C8.24086 14.2284 7.76331 14.2251 7.49218 13.9938C7.49199 13.9936 7.4918 13.9935 7.49161 13.9933L6.4408 13.0888C6.4406 13.0886 6.44039 13.0885 6.44019 13.0883C6.28103 12.9505 6.07791 12.8461 5.88999 12.7763C5.7019 12.7064 5.48103 12.6533 5.27334 12.6533H4.12C3.68948 12.6533 3.33334 12.2972 3.33334 11.8667V10.7267C3.33334 10.5186 3.28008 10.2994 3.21141 10.1139C3.14248 9.92772 3.041 9.72951 2.91078 9.57324L2.9108 9.57323L2.90782 9.56972L2.00941 8.51161C2.00919 8.51134 2.00896 8.51107 2.00874 8.5108C1.77931 8.23694 1.77931 7.76306 2.00874 7.4892C2.00896 7.48893 2.00919 7.48866 2.00941 7.48839L2.90782 6.43028L2.90783 6.43029L2.91078 6.42676C3.041 6.27049 3.14248 6.07228 3.21141 5.88607C3.28008 5.70055 3.33334 5.48136 3.33334 5.27333V4.13333C3.33334 3.70281 3.68948 3.34666 4.12 3.34666H5.27334C5.4808 3.34666 5.70116 3.29366 5.88774 3.22535C6.07468 3.15691 6.27577 3.05549 6.43343 2.92411ZM7.90689 10.3136L11.1269 7.09355C11.5155 6.70496 11.5155 6.06837 11.1269 5.67978C10.7383 5.29118 10.1017 5.29118 9.71312 5.67978L7.2 8.19289L6.29356 7.28645C5.90496 6.89785 5.26838 6.89785 4.87978 7.28645C4.49119 7.67504 4.49119 8.31162 4.87978 8.70022L6.49312 10.3136C6.67915 10.4996 6.93255 10.6067 7.2 10.6067C7.46745 10.6067 7.72086 10.4996 7.90689 10.3136Z" fill="#59B4D1" stroke="#59B4D1"/>
</svg>
